# This file uses centimeters as units for non-parametric coordinates.

mtllib star.mtl
g default
v 0.809017 -1.000000 -0.587785
v 0.184489 -1.000000 -0.396403
v -0.309017 -1.000000 -0.951057
v -0.281511 -1.000000 -0.244991
v -1.000000 -1.000000 0.000000
v -0.281511 -1.000000 0.244991
v -0.309017 -1.000000 0.951057
v 0.184490 -1.000000 0.396403
v 0.809017 -1.000000 0.587785
v 0.472493 -1.000000 -0.000000
v 0.000000 1.000000 0.000000
vt 0.702254 0.103054
vt 0.577254 0.012236
vt 0.422746 0.012236
vt 0.297746 0.103054
vt 0.250000 0.250000
vt 0.297746 0.396946
vt 0.422746 0.487764
vt 0.577254 0.487764
vt 0.702254 0.396946
vt 0.750000 0.250000
vt 0.250000 0.500000
vt 0.300000 0.500000
vt 0.350000 0.500000
vt 0.400000 0.500000
vt 0.450000 0.500000
vt 0.500000 0.500000
vt 0.550000 0.500000
vt 0.600000 0.500000
vt 0.650000 0.500000
vt 0.700000 0.500000
vt 0.750000 0.500000
vt 0.500000 1.000000
vn 0.000000 -1.000000 0.000000
vn 0.000000 -1.000000 -0.000000
vn 0.000000 -1.000000 0.000000
vn 0.000000 -1.000000 0.000000
vn 0.000000 -1.000000 0.000000
vn 0.000000 -1.000000 -0.000000
vn 0.000000 -1.000000 -0.000000
vn 0.000000 -1.000000 0.000000
vn 0.000000 -1.000000 0.000000
vn 0.000000 -1.000000 0.000000
vn -0.289202 0.160373 -0.943739
vn -0.289202 0.160373 -0.943739
vn -0.289202 0.160373 -0.943739
vn 0.732486 0.196743 -0.651734
vn 0.732485 0.196743 -0.651734
vn 0.732486 0.196743 -0.651734
vn -0.990143 0.134643 0.038574
vn -0.990143 0.134643 0.038574
vn -0.990143 0.134643 0.038574
vn -0.318613 0.159306 -0.934402
vn -0.318613 0.159306 -0.934402
vn -0.318613 0.159306 -0.934402
vn -0.318612 0.159306 0.934402
vn -0.318612 0.159306 0.934402
vn -0.318612 0.159306 0.934402
vn -0.990143 0.134643 -0.038573
vn -0.990143 0.134643 -0.038573
vn -0.990143 0.134643 -0.038573
vn 0.732486 0.196743 0.651734
vn 0.732486 0.196743 0.651734
vn 0.732486 0.196743 0.651734
vn -0.289202 0.160373 0.943739
vn -0.289202 0.160373 0.943739
vn -0.289202 0.160373 0.943739
vn 0.850148 0.200845 -0.486734
vn 0.850148 0.200845 -0.486734
vn 0.850148 0.200845 -0.486734
vn 0.850148 0.200845 0.486734
vn 0.850148 0.200845 0.486734
vn 0.850148 0.200845 0.486734
s 1
g pCone1
usemtl initialShadingGroup
f 5/5/1 4/4/2 6/6/3
f 7/7/4 6/6/3 8/8/5
f 3/3/6 2/2/7 4/4/2
f 1/1/8 10/10/9 2/2/7
f 9/9/10 8/8/5 10/10/9
f 10/10/9 8/8/5 2/2/7
f 8/8/5 6/6/3 2/2/7
f 6/6/3 4/4/2 2/2/7
s off
f 1/11/11 2/12/12 11/22/13
f 2/12/14 3/13/15 11/22/16
f 3/13/17 4/14/18 11/22/19
f 4/14/20 5/15/21 11/22/22
f 5/15/23 6/16/24 11/22/25
f 6/16/26 7/17/27 11/22/28
f 7/17/29 8/18/30 11/22/31
f 8/18/32 9/19/33 11/22/34
f 9/19/35 10/20/36 11/22/37
f 10/20/38 1/21/39 11/22/40
